<svg id="visual" viewBox="0 0 900 600" width="900" height="600" xmlns="http://www.w3.org/2000/svg" xmlns:xlink="http://www.w3.org/1999/xlink" version="1.1"><rect x="0" y="0" width="900" height="600" fill="#140021"></rect><path d="M0 143L64 143L64 234L129 234L129 194L193 194L193 141L257 141L257 314L321 314L321 243L386 243L386 177L450 177L450 258L514 258L514 137L579 137L579 206L643 206L643 196L707 196L707 144L771 144L771 309L836 309L836 229L900 229L900 297L900 601L900 601L836 601L836 601L771 601L771 601L707 601L707 601L643 601L643 601L579 601L579 601L514 601L514 601L450 601L450 601L386 601L386 601L321 601L321 601L257 601L257 601L193 601L193 601L129 601L129 601L64 601L64 601L0 601Z" fill="#9900ff"></path><path d="M0 321L64 321L64 438L129 438L129 375L193 375L193 472L257 472L257 449L321 449L321 438L386 438L386 423L450 423L450 403L514 403L514 469L579 469L579 478L643 478L643 370L707 370L707 472L771 472L771 383L836 383L836 334L900 334L900 412L900 601L900 601L836 601L836 601L771 601L771 601L707 601L707 601L643 601L643 601L579 601L579 601L514 601L514 601L450 601L450 601L386 601L386 601L321 601L321 601L257 601L257 601L193 601L193 601L129 601L129 601L64 601L64 601L0 601Z" fill="#560090"></path></svg>