<svg id="visual" viewBox="0 0 900 600" width="900" height="600" xmlns="http://www.w3.org/2000/svg" xmlns:xlink="http://www.w3.org/1999/xlink" version="1.1"><path d="M0 169L13.7 154C27.3 139 54.7 109 82 108C109.3 107 136.7 135 163.8 147C191 159 218 155 245.2 149C272.3 143 299.7 135 327 132C354.3 129 381.7 131 409 164C436.3 197 463.7 261 491 266C518.3 271 545.7 217 573 186C600.3 155 627.7 147 654.8 136C682 125 709 111 736.2 109C763.3 107 790.7 117 818 136C845.3 155 872.7 183 886.3 197L900 211L900 0L886.3 0C872.7 0 845.3 0 818 0C790.7 0 763.3 0 736.2 0C709 0 682 0 654.8 0C627.7 0 600.3 0 573 0C545.7 0 518.3 0 491 0C463.7 0 436.3 0 409 0C381.7 0 354.3 0 327 0C299.7 0 272.3 0 245.2 0C218 0 191 0 163.8 0C136.7 0 109.3 0 82 0C54.7 0 27.3 0 13.7 0L0 0Z" fill="#6198ff"></path><path d="M0 277L13.7 264C27.3 251 54.7 225 82 226C109.3 227 136.7 255 163.8 258C191 261 218 239 245.2 237C272.3 235 299.7 253 327 260C354.3 267 381.7 263 409 282C436.3 301 463.7 343 491 355C518.3 367 545.7 349 573 323C600.3 297 627.7 263 654.8 249C682 235 709 241 736.2 237C763.3 233 790.7 219 818 230C845.3 241 872.7 277 886.3 295L900 313L900 209L886.3 195C872.7 181 845.3 153 818 134C790.7 115 763.3 105 736.2 107C709 109 682 123 654.8 134C627.7 145 600.3 153 573 184C545.7 215 518.3 269 491 264C463.7 259 436.3 195 409 162C381.7 129 354.3 127 327 130C299.7 133 272.3 141 245.2 147C218 153 191 157 163.8 145C136.7 133 109.3 105 82 106C54.7 107 27.3 137 13.7 152L0 167Z" fill="#3c80ff"></path><path d="M0 319L13.7 315C27.3 311 54.7 303 82 314C109.3 325 136.7 355 163.8 350C191 345 218 305 245.2 302C272.3 299 299.7 333 327 345C354.3 357 381.7 347 409 358C436.3 369 463.7 401 491 408C518.3 415 545.7 397 573 375C600.3 353 627.7 327 654.8 318C682 309 709 317 736.2 309C763.3 301 790.7 277 818 283C845.3 289 872.7 325 886.3 343L900 361L900 311L886.3 293C872.7 275 845.3 239 818 228C790.7 217 763.3 231 736.2 235C709 239 682 233 654.8 247C627.7 261 600.3 295 573 321C545.7 347 518.3 365 491 353C463.7 341 436.3 299 409 280C381.7 261 354.3 265 327 258C299.7 251 272.3 233 245.2 235C218 237 191 259 163.8 256C136.7 253 109.3 225 82 224C54.7 223 27.3 249 13.7 262L0 275Z" fill="#0066ff"></path><path d="M0 523L13.7 519C27.3 515 54.7 507 82 502C109.3 497 136.7 495 163.8 502C191 509 218 525 245.2 535C272.3 545 299.7 549 327 542C354.3 535 381.7 517 409 517C436.3 517 463.7 535 491 541C518.3 547 545.7 541 573 532C600.3 523 627.7 511 654.8 506C682 501 709 503 736.2 498C763.3 493 790.7 481 818 478C845.3 475 872.7 481 886.3 484L900 487L900 359L886.3 341C872.7 323 845.3 287 818 281C790.7 275 763.3 299 736.2 307C709 315 682 307 654.8 316C627.7 325 600.3 351 573 373C545.7 395 518.3 413 491 406C463.7 399 436.3 367 409 356C381.7 345 354.3 355 327 343C299.7 331 272.3 297 245.2 300C218 303 191 343 163.8 348C136.7 353 109.3 323 82 312C54.7 301 27.3 309 13.7 313L0 317Z" fill="#0059dd"></path><path d="M0 601L13.7 601C27.3 601 54.7 601 82 601C109.3 601 136.7 601 163.8 601C191 601 218 601 245.2 601C272.3 601 299.7 601 327 601C354.3 601 381.7 601 409 601C436.3 601 463.7 601 491 601C518.3 601 545.7 601 573 601C600.3 601 627.7 601 654.8 601C682 601 709 601 736.2 601C763.3 601 790.7 601 818 601C845.3 601 872.7 601 886.3 601L900 601L900 485L886.3 482C872.7 479 845.3 473 818 476C790.7 479 763.3 491 736.2 496C709 501 682 499 654.8 504C627.7 509 600.3 521 573 530C545.7 539 518.3 545 491 539C463.7 533 436.3 515 409 515C381.7 515 354.3 533 327 540C299.7 547 272.3 543 245.2 533C218 523 191 507 163.8 500C136.7 493 109.3 495 82 500C54.7 505 27.3 513 13.7 517L0 521Z" fill="#004cbb"></path></svg>